<svg width="500" height="500" viewBox="0 0 500 500" fill="none" xmlns="http://www.w3.org/2000/svg">
<rect width="500" height="500"/>
<path d="M324.933 306.744C324.933 323.32 327.316 344.869 333.405 355.724C338.436 360.225 348.404 369.074 367.559 360.49C396.864 347.358 392.169 301.781 393.77 306.744C399.595 308.862 398.261 360.002 382.915 380.612C360.982 410.067 329.434 420.325 324.933 421.914C321.096 422.976 322.864 455.849 317.785 467.188C316.196 469.57 308.571 468.671 307.459 468.776C302.868 469.209 299.088 425.352 294.221 425.51C281.923 425.908 269.445 425.62 260.332 425.62C254.247 425.62 249.742 466.923 248.153 468.776C247.472 469.57 237.134 472.229 234.651 464.54C229.583 448.85 231.335 415.182 228.422 411.853C213.644 394.965 208.07 363.262 208.07 320.776C208.07 315.712 156.342 304.338 139.338 295.624C135.79 293.806 135.273 287.636 135.366 286.623C135.997 279.793 210.508 289.306 211.813 282.916C221.31 236.42 247.814 202.959 279.025 202.959C294.125 202.959 306.135 220.168 311.43 238.172C314.922 248.03 317.736 256.733 319.873 265.177C321.684 272.33 382.076 240.113 382.915 247.438C382.991 248.098 383.998 250.245 382.915 251.674C373.611 263.949 324.933 300.288 324.933 306.744Z" fill="#099D46"/>
<path d="M340.289 163.51C340.289 226.093 291.674 254.587 229.091 254.587C166.508 254.587 110.479 236.154 110.479 173.571C110.479 135.579 165.183 163.683 193.878 143.124C212.451 129.817 228.858 65.0201 253.448 65.0201C316.031 65.0201 340.289 100.927 340.289 163.51Z" fill="#099D46"/>
<ellipse cx="229.056" cy="128.941" rx="13.2379" ry="24.8873" transform="rotate(20 229.056 128.941)" fill="white"/>
<ellipse cx="245.747" cy="137.27" rx="13.2379" ry="24.8873" transform="rotate(20 245.747 137.27)" fill="white"/>
<ellipse cx="228.008" cy="119.524" rx="4.76564" ry="10.0608" transform="rotate(20 228.008 119.524)" fill="black"/>
<ellipse cx="244.423" cy="129.585" rx="4.76564" ry="10.0608" transform="rotate(20 244.423 129.585)" fill="black"/>
<path d="M212.146 214.873C212.146 214.873 232.08 216.434 242.593 210.637C251.594 205.673 260.596 191.574 260.596 191.574" stroke="white" stroke-width="5"/>
<path d="M264.786 47.0502C266.042 45.5041 268.427 45.5881 269.571 47.2188L285.196 69.4982L247.623 68.1862L264.786 47.0502Z" fill="#099D46"/>
<path d="M308.706 58.498C310.541 57.7222 312.608 58.9166 312.852 60.8933L316.188 87.9002L283.63 69.1026L308.706 58.498Z" fill="#099D46"/>
<path d="M341.891 88.7628C343.867 89.0082 345.06 91.0761 344.283 92.9101L333.669 117.967L314.872 85.4085L341.891 88.7628Z" fill="#099D46"/>
<path d="M357.2 129.372C358.941 130.34 359.272 132.705 357.865 134.114L338.637 153.37L333.405 116.141L357.2 129.372Z" fill="#099D46"/>
<path d="M360.067 170.106C361.546 171.441 361.337 173.819 359.649 174.876L336.582 189.313L339.859 151.861L360.067 170.106Z" fill="#099D46"/>
<path d="M176.139 125.12C176.139 136.964 161.441 146.565 143.309 146.565C125.178 146.565 114.98 138.358 107.037 129.356C103.596 126.709 98.2211 115.136 99.0946 113.206C111.274 115.854 121.721 111.633 136.161 110.029C144.961 109.051 158.517 106.901 166.608 109.764C169.594 110.821 173.756 110.823 173.492 113.471C173.756 117.707 176.139 121.832 176.139 125.12Z" fill="#E3CE46"/>
<path d="M179.317 102.086C181.435 104.204 187.881 104.62 187.524 105.793C185.936 106.852 178.522 106.587 173.492 114.53C171.174 116.999 170.792 115.324 167.138 115.324C160.119 115.324 154.959 110.958 154.959 103.939C154.959 97.5853 159.06 91.2311 166.079 91.2311C173.097 91.2311 177.463 94.4082 179.317 102.086Z" fill="#E3CE46"/>
<circle cx="170.778" cy="100.431" r="2.01376" transform="rotate(20 170.778 100.431)" fill="black"/>
</svg>
